<?xml version="1.0" encoding="UTF-8"?>
<svg id="Layer_1" data-name="Layer 1" xmlns="http://www.w3.org/2000/svg" viewBox="0 0 512 512">
  <defs>
    <style>
      .cls-1 {
        fill: #3b6be3;
      }

      .cls-1, .cls-2 {
        stroke-width: 0px;
      }

      .cls-2 {
        fill: #222;
        fill-rule: evenodd;
      }
    </style>
  </defs>
  <g id="Layer_1-2" data-name="Layer 1-2">
    <g>
      <path class="cls-1" d="m65.96,305.97h-27.5l45.39-102.69h27.57l-45.47,102.69Z"/>
      <path class="cls-2" d="m331.96,200.6c30.53,0,55.12,23.96,55.12,55.12s-24.78,55.68-55.39,55.68-55.41-24.1-55.41-55.32,25.12-55.49,55.68-55.49Zm100.51,0c26.4,0,37.28,16.48,39.18,30.26l-23.27,6.53c-1.25-8.48-6.5-14.64-16.04-14.64-8.26,0-12.2,5.5-12.2,9.66,0,3.47,1.64,7.43,7.77,8.63l15.08,2.89c19.73,3.79,30.53,15.82,30.53,31.46,0,16.98-14.69,33.34-39.84,33.34-26.33.03-40.46-13.74-43.93-33.56l23.71-5.62c1.71,12.49,10.8,16.98,20.39,16.98s12.95-5.62,12.95-9.99c0-3.55-2.05-6.99-9-8.38l-14.47-2.81c-17.3-3.33-29.55-14.18-29.55-30.87,0-19.89,18.17-33.87,38.65-33.87h.03Zm-164.28,2.69v102.69h-24.32v-102.69h24.32Zm-100.12,0l17.99,30.38,18.41-30.38h31.27l-34.15,50.18,34.02,52.5h-28.23l-21.32-32.51-21.51,32.51h-34.51l-45.62-102.64h27.59l36.64,82.86,22.34-32.7-34.58-50.2h31.68-.03,0Zm163.67,22.61c-16.21,0-28.16,14.03-28.16,29.97s12,30.12,28.16,30.12,28.08-14.18,28.08-30.12-11.95-29.97-28.08-29.97h0Z"/>
    </g>
  </g>
</svg>